<svg aria-hidden="true" style="position: absolute; width: 0; height: 0; overflow: hidden;" version="1.1" xmlns="http://www.w3.org/2000/svg" xmlns:xlink="http://www.w3.org/1999/xlink">
<defs>
<symbol id="icon-facebook" viewBox="0 0 32 32">
<path d="M19 6h5v-6h-5c-3.86 0-7 3.14-7 7v3h-4v6h4v16h6v-16h5l1-6h-6v-3c0-0.542 0.458-1 1-1z"></path>
</symbol>
<symbol id="icon-instagram" viewBox="0 0 32 32">
<path d="M16 2.881c4.275 0 4.781 0.019 6.462 0.094 1.563 0.069 2.406 0.331 2.969 0.55 0.744 0.288 1.281 0.638 1.837 1.194 0.563 0.563 0.906 1.094 1.2 1.838 0.219 0.563 0.481 1.412 0.55 2.969 0.075 1.688 0.094 2.194 0.094 6.463s-0.019 4.781-0.094 6.463c-0.069 1.563-0.331 2.406-0.55 2.969-0.288 0.744-0.637 1.281-1.194 1.837-0.563 0.563-1.094 0.906-1.837 1.2-0.563 0.219-1.413 0.481-2.969 0.55-1.688 0.075-2.194 0.094-6.463 0.094s-4.781-0.019-6.463-0.094c-1.563-0.069-2.406-0.331-2.969-0.55-0.744-0.288-1.281-0.637-1.838-1.194-0.563-0.563-0.906-1.094-1.2-1.837-0.219-0.563-0.481-1.413-0.55-2.969-0.075-1.688-0.094-2.194-0.094-6.463s0.019-4.781 0.094-6.463c0.069-1.563 0.331-2.406 0.55-2.969 0.288-0.744 0.638-1.281 1.194-1.838 0.563-0.563 1.094-0.906 1.838-1.2 0.563-0.219 1.412-0.481 2.969-0.55 1.681-0.075 2.188-0.094 6.463-0.094zM16 0c-4.344 0-4.887 0.019-6.594 0.094-1.7 0.075-2.869 0.35-3.881 0.744-1.056 0.412-1.95 0.956-2.837 1.85-0.894 0.888-1.438 1.781-1.85 2.831-0.394 1.019-0.669 2.181-0.744 3.881-0.075 1.713-0.094 2.256-0.094 6.6s0.019 4.887 0.094 6.594c0.075 1.7 0.35 2.869 0.744 3.881 0.413 1.056 0.956 1.95 1.85 2.837 0.887 0.887 1.781 1.438 2.831 1.844 1.019 0.394 2.181 0.669 3.881 0.744 1.706 0.075 2.25 0.094 6.594 0.094s4.888-0.019 6.594-0.094c1.7-0.075 2.869-0.35 3.881-0.744 1.050-0.406 1.944-0.956 2.831-1.844s1.438-1.781 1.844-2.831c0.394-1.019 0.669-2.181 0.744-3.881 0.075-1.706 0.094-2.25 0.094-6.594s-0.019-4.887-0.094-6.594c-0.075-1.7-0.35-2.869-0.744-3.881-0.394-1.063-0.938-1.956-1.831-2.844-0.887-0.887-1.781-1.438-2.831-1.844-1.019-0.394-2.181-0.669-3.881-0.744-1.712-0.081-2.256-0.1-6.6-0.1v0z"></path>
<path d="M16 7.781c-4.537 0-8.219 3.681-8.219 8.219s3.681 8.219 8.219 8.219 8.219-3.681 8.219-8.219c0-4.537-3.681-8.219-8.219-8.219zM16 21.331c-2.944 0-5.331-2.387-5.331-5.331s2.387-5.331 5.331-5.331c2.944 0 5.331 2.387 5.331 5.331s-2.387 5.331-5.331 5.331z"></path>
<path d="M26.462 7.456c0 1.060-0.859 1.919-1.919 1.919s-1.919-0.859-1.919-1.919c0-1.060 0.859-1.919 1.919-1.919s1.919 0.859 1.919 1.919z"></path>
</symbol>
<symbol id="icon-linkedin" viewBox="0 0 32 32">
<path d="M29 0h-26c-1.65 0-3 1.35-3 3v26c0 1.65 1.35 3 3 3h26c1.65 0 3-1.35 3-3v-26c0-1.65-1.35-3-3-3zM12 26h-4v-14h4v14zM10 10c-1.106 0-2-0.894-2-2s0.894-2 2-2c1.106 0 2 0.894 2 2s-0.894 2-2 2zM26 26h-4v-8c0-1.106-0.894-2-2-2s-2 0.894-2 2v8h-4v-14h4v2.481c0.825-1.131 2.087-2.481 3.5-2.481 2.488 0 4.5 2.238 4.5 5v9z"></path>
</symbol>
<symbol id="icon-telegram" viewBox="0 0 32 32">
<path d="M16 0c-8.838 0-16 7.162-16 16s7.162 16 16 16 16-7.163 16-16-7.163-16-16-16zM23.863 10.969l-2.625 12.369c-0.181 0.881-0.712 1.087-1.45 0.681l-4-2.956-1.919 1.869c-0.225 0.219-0.4 0.4-0.8 0.4-0.519 0-0.431-0.194-0.606-0.688l-1.363-4.475-3.956-1.231c-0.856-0.262-0.862-0.85 0.194-1.269l15.412-5.95c0.7-0.319 1.381 0.169 1.113 1.25z"></path>
</symbol>
<symbol id="icon-twitter" viewBox="0 0 32 32">
<path d="M32 7.075c-1.175 0.525-2.444 0.875-3.769 1.031 1.356-0.813 2.394-2.1 2.887-3.631-1.269 0.75-2.675 1.3-4.169 1.594-1.2-1.275-2.906-2.069-4.794-2.069-3.625 0-6.563 2.938-6.563 6.563 0 0.512 0.056 1.012 0.169 1.494-5.456-0.275-10.294-2.888-13.531-6.862-0.563 0.969-0.887 2.1-0.887 3.3 0 2.275 1.156 4.287 2.919 5.463-1.075-0.031-2.087-0.331-2.975-0.819 0 0.025 0 0.056 0 0.081 0 3.181 2.263 5.838 5.269 6.437-0.55 0.15-1.131 0.231-1.731 0.231-0.425 0-0.831-0.044-1.237-0.119 0.838 2.606 3.263 4.506 6.131 4.563-2.25 1.762-5.075 2.813-8.156 2.813-0.531 0-1.050-0.031-1.569-0.094 2.913 1.869 6.362 2.95 10.069 2.95 12.075 0 18.681-10.006 18.681-18.681 0-0.287-0.006-0.569-0.019-0.85 1.281-0.919 2.394-2.075 3.275-3.394z"></path>
</symbol>
<symbol id="icon-viber" viewBox="0 0 32 32">
<path fill="#272727" style="fill: var(--color1, #272727)" d="M16 0c8.837 0 16 7.163 16 16s-7.163 16-16 16c-8.837 0-16-7.163-16-16s7.163-16 16-16z"></path>
<path fill="#fff" style="fill: var(--color2, #fff)" d="M23.836 8.123c-0.529-0.487-2.672-2.044-7.448-2.066 0 0-5.63-0.341-8.374 2.177-1.528 1.528-2.066 3.76-2.121 6.535-0.056 2.77-0.128 7.965 4.879 9.373h0.004l-0.004 2.147c0 0-0.030 0.871 0.542 1.046 0.691 0.213 1.101-0.448 1.763-1.161 0.363-0.393 0.862-0.965 1.242-1.404 3.423 0.286 6.057-0.371 6.355-0.47 0.691-0.226 4.605-0.726 5.241-5.92 0.657-5.344-0.32-8.729-2.079-10.257zM24.417 18.004c-0.538 4.337-3.709 4.61-4.294 4.797-0.247 0.081-2.561 0.657-5.472 0.465 0 0-2.168 2.616-2.843 3.295-0.107 0.107-0.23 0.149-0.312 0.128-0.115-0.030-0.149-0.167-0.145-0.367 0-0.29 0.017-3.572 0.017-3.572-0.004 0-0.004 0 0 0-4.238-1.174-3.991-5.596-3.944-7.909s0.482-4.213 1.776-5.489c2.318-2.1 7.102-1.788 7.102-1.788 4.038 0.017 5.971 1.234 6.419 1.639 1.49 1.28 2.249 4.332 1.694 8.801z"></path>
<path fill="#fff" style="fill: var(--color2, #fff)" d="M18.356 14.922c-0.141 0-0.26-0.111-0.269-0.256-0.047-0.918-0.478-1.366-1.357-1.413-0.149-0.009-0.265-0.137-0.256-0.286s0.137-0.265 0.286-0.256c1.161 0.064 1.81 0.73 1.869 1.925 0.009 0.149-0.107 0.277-0.256 0.282-0.009 0.004-0.013 0.004-0.017 0.004z"></path>
<path fill="#fff" style="fill: var(--color2, #fff)" d="M19.738 15.383h-0.004c-0.149-0.004-0.269-0.128-0.265-0.277 0.021-0.922-0.243-1.669-0.807-2.283-0.559-0.615-1.332-0.948-2.352-1.020-0.149-0.013-0.26-0.141-0.248-0.29s0.141-0.26 0.29-0.248c1.152 0.085 2.061 0.487 2.71 1.195 0.653 0.713 0.969 1.605 0.947 2.659-0.004 0.149-0.128 0.265-0.273 0.265z"></path>
<path fill="#fff" style="fill: var(--color2, #fff)" d="M21.156 15.938c-0.149 0-0.269-0.12-0.269-0.269-0.013-1.652-0.487-2.911-1.451-3.854-0.952-0.93-2.16-1.404-3.581-1.417-0.149 0-0.269-0.124-0.269-0.273s0.124-0.269 0.269-0.269c1.566 0.013 2.898 0.538 3.952 1.571 1.058 1.033 1.601 2.459 1.618 4.234 0.004 0.154-0.115 0.277-0.269 0.277 0.004 0 0.004 0 0 0z"></path>
<path fill="#fff" style="fill: var(--color2, #fff)" d="M16.793 18.264c0 0 0.38 0.034 0.585-0.218l0.397-0.499c0.192-0.248 0.657-0.406 1.11-0.154 0.252 0.141 0.708 0.423 0.99 0.632 0.303 0.222 0.918 0.734 0.922 0.738 0.294 0.247 0.363 0.61 0.162 0.999 0 0 0 0.004 0 0.009-0.205 0.363-0.482 0.704-0.828 1.020-0.004 0-0.004 0.004-0.009 0.004-0.286 0.239-0.568 0.376-0.841 0.406-0.034 0.009-0.073 0.009-0.124 0.009-0.119 0-0.239-0.017-0.359-0.055l-0.009-0.013c-0.427-0.119-1.135-0.418-2.313-1.071-0.768-0.423-1.404-0.854-1.946-1.285-0.286-0.226-0.576-0.478-0.875-0.777-0.009-0.009-0.021-0.021-0.030-0.030s-0.021-0.021-0.030-0.030c-0.009-0.009-0.021-0.021-0.030-0.030s-0.021-0.021-0.030-0.030c-0.294-0.299-0.551-0.589-0.777-0.875-0.431-0.538-0.862-1.178-1.285-1.946-0.653-1.182-0.952-1.891-1.071-2.313l-0.013-0.009c-0.038-0.12-0.056-0.239-0.056-0.359 0-0.051 0-0.090 0.009-0.124 0.034-0.277 0.171-0.555 0.405-0.841 0-0.004 0.004-0.004 0.004-0.009 0.316-0.35 0.657-0.623 1.020-0.828 0 0 0.004 0 0.009 0 0.384-0.201 0.747-0.132 0.999 0.162 0 0 0.516 0.619 0.738 0.922 0.209 0.286 0.491 0.738 0.632 0.99 0.252 0.452 0.094 0.918-0.154 1.11l-0.499 0.397c-0.252 0.205-0.218 0.585-0.218 0.585s0.738 2.809 3.513 3.513z"></path>
</symbol>
</defs>
</svg>
