<svg aria-hidden="true" style="width:0;height:0;position:absolute;overflow:hidden" xmlns="http://www.w3.org/2000/svg"><defs><symbol id="icon-cheveron-down" viewBox="0 0 20 20"><path d="m9.293 12.95.707.707L15.657 8l-1.414-1.414L10 10.828 5.757 6.586 4.343 8z"/></symbol><symbol id="icon-cheveron-left" viewBox="0 0 20 20"><path d="M7.05 9.293 6.343 10 12 15.657l1.414-1.414L9.172 10l4.242-4.243L12 4.343z"/></symbol><symbol id="icon-cheveron-right" viewBox="0 0 20 20"><path d="m12.95 10.707.707-.707L8 4.343 6.586 5.757 10.828 10l-4.242 4.243L8 15.657l4.95-4.95z"/></symbol><symbol id="icon-cheveron-up" viewBox="0 0 20 20"><path d="M10.707 7.05 10 6.343 4.343 12l1.414 1.414L10 9.172l4.243 4.242L15.657 12z"/></symbol><symbol id="icon-plus" viewBox="0 0 32 32"><path d="M31 12H20V1a1 1 0 0 0-1-1h-6a1 1 0 0 0-1 1v11H1a1 1 0 0 0-1 1v6a1 1 0 0 0 1 1h11v11a1 1 0 0 0 1 1h6a1 1 0 0 0 1-1V20h11a1 1 0 0 0 1-1v-6a1 1 0 0 0-1-1z"/></symbol><symbol id="icon-minus" viewBox="0 0 32 32"><path d="M0 13v6a1 1 0 0 0 1 1h30a1 1 0 0 0 1-1v-6a1 1 0 0 0-1-1H1a1 1 0 0 0-1 1z"/></symbol><symbol id="icon-cross" viewBox="0 0 32 32"><path d="M31.708 25.708 22 16l9.708-9.708a1 1 0 0 0 0-1.414L27.122.292a1 1 0 0 0-1.414-.001L16 9.999 6.292.291a.998.998 0 0 0-1.414.001L.292 4.878a1 1 0 0 0 0 1.414L10 16 .292 25.708a.999.999 0 0 0 0 1.414l4.586 4.586a1 1 0 0 0 1.414 0L16 22l9.708 9.708a1 1 0 0 0 1.414 0l4.586-4.586a.999.999 0 0 0 0-1.414z"/></symbol></defs></svg>