<svg aria-hidden="true" style="width:0;height:0;position:absolute;overflow:hidden" xmlns="http://www.w3.org/2000/svg"><defs><symbol id="icon-facebook" viewBox="0 0 32 32"><path d="M19 6h5V0h-5c-3.86 0-7 3.14-7 7v3H8v6h4v16h6V16h5l1-6h-6V7c0-.542.458-1 1-1z"/></symbol><symbol id="icon-instagram" viewBox="0 0 32 32"><path d="M16 2.881c4.275 0 4.781.019 6.462.094 1.563.069 2.406.331 2.969.55a4.952 4.952 0 0 1 1.837 1.194 5.015 5.015 0 0 1 1.2 1.838c.219.563.481 1.412.55 2.969.075 1.688.094 2.194.094 6.463s-.019 4.781-.094 6.463c-.069 1.563-.331 2.406-.55 2.969a4.94 4.94 0 0 1-1.194 1.837 5.02 5.02 0 0 1-1.837 1.2c-.563.219-1.413.481-2.969.55-1.688.075-2.194.094-6.463.094s-4.781-.019-6.463-.094c-1.563-.069-2.406-.331-2.969-.55a4.952 4.952 0 0 1-1.838-1.194 5.02 5.02 0 0 1-1.2-1.837c-.219-.563-.481-1.413-.55-2.969-.075-1.688-.094-2.194-.094-6.463s.019-4.781.094-6.463c.069-1.563.331-2.406.55-2.969a4.964 4.964 0 0 1 1.194-1.838 5.015 5.015 0 0 1 1.838-1.2c.563-.219 1.412-.481 2.969-.55 1.681-.075 2.188-.094 6.463-.094zM16 0c-4.344 0-4.887.019-6.594.094-1.7.075-2.869.35-3.881.744-1.056.412-1.95.956-2.837 1.85a7.833 7.833 0 0 0-1.85 2.831C.444 6.538.169 7.7.094 9.4.019 11.113 0 11.656 0 16s.019 4.887.094 6.594c.075 1.7.35 2.869.744 3.881.413 1.056.956 1.95 1.85 2.837a7.82 7.82 0 0 0 2.831 1.844c1.019.394 2.181.669 3.881.744 1.706.075 2.25.094 6.594.094s4.888-.019 6.594-.094c1.7-.075 2.869-.35 3.881-.744 1.05-.406 1.944-.956 2.831-1.844s1.438-1.781 1.844-2.831c.394-1.019.669-2.181.744-3.881.075-1.706.094-2.25.094-6.594s-.019-4.887-.094-6.594c-.075-1.7-.35-2.869-.744-3.881a7.506 7.506 0 0 0-1.831-2.844A7.82 7.82 0 0 0 26.482.843C25.463.449 24.301.174 22.601.099c-1.712-.081-2.256-.1-6.6-.1z"/><path d="M16 7.781c-4.537 0-8.219 3.681-8.219 8.219s3.681 8.219 8.219 8.219 8.219-3.681 8.219-8.219A8.221 8.221 0 0 0 16 7.781zm0 13.55a5.331 5.331 0 1 1 0-10.663 5.331 5.331 0 0 1 0 10.663zM26.462 7.456a1.919 1.919 0 1 1-3.838 0 1.919 1.919 0 0 1 3.838 0z"/></symbol><symbol id="icon-linkedin" viewBox="0 0 32 32"><path d="M29 0H3C1.35 0 0 1.35 0 3v26c0 1.65 1.35 3 3 3h26c1.65 0 3-1.35 3-3V3c0-1.65-1.35-3-3-3zM12 26H8V12h4v14zm-2-16c-1.106 0-2-.894-2-2s.894-2 2-2c1.106 0 2 .894 2 2s-.894 2-2 2zm16 16h-4v-8c0-1.106-.894-2-2-2s-2 .894-2 2v8h-4V12h4v2.481C18.825 13.35 20.087 12 21.5 12c2.488 0 4.5 2.238 4.5 5v9z"/></symbol><symbol id="icon-telegram" viewBox="0 0 32 32"><path d="M16 0C7.162 0 0 7.162 0 16s7.162 16 16 16 16-7.163 16-16S24.837 0 16 0zm7.863 10.969-2.625 12.369c-.181.881-.712 1.087-1.45.681l-4-2.956-1.919 1.869c-.225.219-.4.4-.8.4-.519 0-.431-.194-.606-.688L11.1 18.169l-3.956-1.231c-.856-.262-.862-.85.194-1.269l15.412-5.95c.7-.319 1.381.169 1.113 1.25z"/></symbol><symbol id="icon-twitter" viewBox="0 0 32 32"><path d="M32 7.075a12.941 12.941 0 0 1-3.769 1.031 6.601 6.601 0 0 0 2.887-3.631 13.21 13.21 0 0 1-4.169 1.594A6.565 6.565 0 0 0 22.155 4a6.563 6.563 0 0 0-6.563 6.563c0 .512.056 1.012.169 1.494A18.635 18.635 0 0 1 2.23 5.195a6.56 6.56 0 0 0-.887 3.3 6.557 6.557 0 0 0 2.919 5.463 6.565 6.565 0 0 1-2.975-.819v.081a6.565 6.565 0 0 0 5.269 6.437 6.574 6.574 0 0 1-2.968.112 6.588 6.588 0 0 0 6.131 4.563 13.17 13.17 0 0 1-9.725 2.719 18.568 18.568 0 0 0 10.069 2.95c12.075 0 18.681-10.006 18.681-18.681 0-.287-.006-.569-.019-.85A13.216 13.216 0 0 0 32 7.076z"/></symbol><symbol id="icon-viber" viewBox="0 0 32 32"><path fill="#272727" style="fill:var(--color1,#272727)" d="M16 0c8.837 0 16 7.163 16 16s-7.163 16-16 16S0 24.837 0 16 7.163 0 16 0z"/><path fill="#fff" style="fill:var(--color2,#fff)" d="M23.836 8.123c-.529-.487-2.672-2.044-7.448-2.066 0 0-5.63-.341-8.374 2.177-1.528 1.528-2.066 3.76-2.121 6.535-.056 2.77-.128 7.965 4.879 9.373h.004l-.004 2.147s-.03.871.542 1.046c.691.213 1.101-.448 1.763-1.161.363-.393.862-.965 1.242-1.404 3.423.286 6.057-.371 6.355-.47.691-.226 4.605-.726 5.241-5.92.657-5.344-.32-8.729-2.079-10.257zm.581 9.881c-.538 4.337-3.709 4.61-4.294 4.797-.247.081-2.561.657-5.472.465 0 0-2.168 2.616-2.843 3.295-.107.107-.23.149-.312.128-.115-.03-.149-.167-.145-.367 0-.29.017-3.572.017-3.572-.004 0-.004 0 0 0-4.238-1.174-3.991-5.596-3.944-7.909s.482-4.213 1.776-5.489c2.318-2.1 7.102-1.788 7.102-1.788 4.038.017 5.971 1.234 6.419 1.639 1.49 1.28 2.249 4.332 1.694 8.801z"/><path fill="#fff" style="fill:var(--color2,#fff)" d="M18.356 14.922a.271.271 0 0 1-.269-.256c-.047-.918-.478-1.366-1.357-1.413-.149-.009-.265-.137-.256-.286s.137-.265.286-.256c1.161.064 1.81.73 1.869 1.925a.266.266 0 0 1-.256.282c-.009.004-.013.004-.017.004z"/><path fill="#fff" style="fill:var(--color2,#fff)" d="M19.738 15.383h-.004a.272.272 0 0 1-.265-.277c.021-.922-.243-1.669-.807-2.283-.559-.615-1.332-.948-2.352-1.02a.27.27 0 1 1 .042-.538c1.152.085 2.061.487 2.71 1.195.653.713.969 1.605.947 2.659a.274.274 0 0 1-.273.265z"/><path fill="#fff" style="fill:var(--color2,#fff)" d="M21.156 15.938a.268.268 0 0 1-.269-.269c-.013-1.652-.487-2.911-1.451-3.854-.952-.93-2.16-1.404-3.581-1.417a.271.271 0 0 1 0-.542c1.566.013 2.898.538 3.952 1.571 1.058 1.033 1.601 2.459 1.618 4.234a.267.267 0 0 1-.269.277c.004 0 .004 0 0 0zM16.793 18.264s.38.034.585-.218l.397-.499c.192-.248.657-.406 1.11-.154.252.141.708.423.99.632.303.222.918.734.922.738.294.247.363.61.162.999v.009a4.159 4.159 0 0 1-.828 1.02c-.004 0-.004.004-.009.004-.286.239-.568.376-.841.406-.034.009-.073.009-.124.009-.119 0-.239-.017-.359-.055l-.009-.013c-.427-.119-1.135-.418-2.313-1.071a13.792 13.792 0 0 1-1.946-1.285 9.928 9.928 0 0 1-.875-.777l-.03-.03-.03-.03-.03-.03-.03-.03a10.807 10.807 0 0 1-.777-.875 13.563 13.563 0 0 1-1.285-1.946c-.653-1.182-.952-1.891-1.071-2.313l-.013-.009a1.179 1.179 0 0 1-.056-.359c0-.051 0-.09.009-.124.034-.277.171-.555.405-.841 0-.004.004-.004.004-.009.316-.35.657-.623 1.02-.828h.009c.384-.201.747-.132.999.162 0 0 .516.619.738.922.209.286.491.738.632.99.252.452.094.918-.154 1.11l-.499.397c-.252.205-.218.585-.218.585s.738 2.809 3.513 3.513z"/></symbol></defs></svg>