<!-- Generated by IcoMoon.io -->
<svg version="1.1" xmlns="http://www.w3.org/2000/svg" width="32" height="32" viewBox="0 0 32 32">
<title>viber</title>
<path fill="#272727" d="M16 0c8.837 0 16 7.163 16 16s-7.163 16-16 16c-8.837 0-16-7.163-16-16s7.163-16 16-16z"></path>
<path fill="#fff" d="M23.836 8.123c-0.529-0.487-2.672-2.044-7.448-2.066 0 0-5.63-0.341-8.374 2.177-1.528 1.528-2.066 3.76-2.121 6.535-0.056 2.77-0.128 7.965 4.879 9.373h0.004l-0.004 2.147c0 0-0.030 0.871 0.542 1.046 0.691 0.213 1.101-0.448 1.763-1.161 0.363-0.393 0.862-0.965 1.242-1.404 3.423 0.286 6.057-0.371 6.355-0.47 0.691-0.226 4.605-0.726 5.241-5.92 0.657-5.344-0.32-8.729-2.079-10.257zM24.417 18.004c-0.538 4.337-3.709 4.61-4.294 4.797-0.247 0.081-2.561 0.657-5.472 0.465 0 0-2.168 2.616-2.843 3.295-0.107 0.107-0.23 0.149-0.312 0.128-0.115-0.030-0.149-0.167-0.145-0.367 0-0.29 0.017-3.572 0.017-3.572-0.004 0-0.004 0 0 0-4.238-1.174-3.991-5.596-3.944-7.909s0.482-4.213 1.776-5.489c2.318-2.1 7.102-1.788 7.102-1.788 4.038 0.017 5.971 1.234 6.419 1.639 1.49 1.28 2.249 4.332 1.694 8.801z"></path>
<path fill="#fff" d="M18.356 14.922c-0.141 0-0.26-0.111-0.269-0.256-0.047-0.918-0.478-1.366-1.357-1.413-0.149-0.009-0.265-0.137-0.256-0.286s0.137-0.265 0.286-0.256c1.161 0.064 1.81 0.73 1.869 1.925 0.009 0.149-0.107 0.277-0.256 0.282-0.009 0.004-0.013 0.004-0.017 0.004z"></path>
<path fill="#fff" d="M19.738 15.383h-0.004c-0.149-0.004-0.269-0.128-0.265-0.277 0.021-0.922-0.243-1.669-0.807-2.283-0.559-0.615-1.332-0.948-2.352-1.020-0.149-0.013-0.26-0.141-0.248-0.29s0.141-0.26 0.29-0.248c1.152 0.085 2.061 0.487 2.71 1.195 0.653 0.713 0.969 1.605 0.947 2.659-0.004 0.149-0.128 0.265-0.273 0.265z"></path>
<path fill="#fff" d="M21.156 15.938c-0.149 0-0.269-0.12-0.269-0.269-0.013-1.652-0.487-2.911-1.451-3.854-0.952-0.93-2.16-1.404-3.581-1.417-0.149 0-0.269-0.124-0.269-0.273s0.124-0.269 0.269-0.269c1.566 0.013 2.898 0.538 3.952 1.571 1.058 1.033 1.601 2.459 1.618 4.234 0.004 0.154-0.115 0.277-0.269 0.277 0.004 0 0.004 0 0 0z"></path>
<path fill="#fff" d="M16.793 18.264c0 0 0.38 0.034 0.585-0.218l0.397-0.499c0.192-0.248 0.657-0.406 1.11-0.154 0.252 0.141 0.708 0.423 0.99 0.632 0.303 0.222 0.918 0.734 0.922 0.738 0.294 0.247 0.363 0.61 0.162 0.999 0 0 0 0.004 0 0.009-0.205 0.363-0.482 0.704-0.828 1.020-0.004 0-0.004 0.004-0.009 0.004-0.286 0.239-0.568 0.376-0.841 0.406-0.034 0.009-0.073 0.009-0.124 0.009-0.119 0-0.239-0.017-0.359-0.055l-0.009-0.013c-0.427-0.119-1.135-0.418-2.313-1.071-0.768-0.423-1.404-0.854-1.946-1.285-0.286-0.226-0.576-0.478-0.875-0.777-0.009-0.009-0.021-0.021-0.030-0.030s-0.021-0.021-0.030-0.030c-0.009-0.009-0.021-0.021-0.030-0.030s-0.021-0.021-0.030-0.030c-0.294-0.299-0.551-0.589-0.777-0.875-0.431-0.538-0.862-1.178-1.285-1.946-0.653-1.182-0.952-1.891-1.071-2.313l-0.013-0.009c-0.038-0.12-0.056-0.239-0.056-0.359 0-0.051 0-0.090 0.009-0.124 0.034-0.277 0.171-0.555 0.405-0.841 0-0.004 0.004-0.004 0.004-0.009 0.316-0.35 0.657-0.623 1.020-0.828 0 0 0.004 0 0.009 0 0.384-0.201 0.747-0.132 0.999 0.162 0 0 0.516 0.619 0.738 0.922 0.209 0.286 0.491 0.738 0.632 0.99 0.252 0.452 0.094 0.918-0.154 1.11l-0.499 0.397c-0.252 0.205-0.218 0.585-0.218 0.585s0.738 2.809 3.513 3.513z"></path>
</svg>
